/* XPM */
static char *theme[] = {
/* columns rows colors chars-per-pixel */
"106 159 9 1 7 7",
"  c #2E3436",
". c #555753",
"X c #A40000",
"o c #CC0000",
"O c #EF2929",
"+ c #204A87",
"@ c #3465A4",
"# c #729FCF",
"$ c #888A85",
/* pixels */
"++++++++++++++++++++++++++++++++++++++++++++++++++++++++++++++++++++++++++++++++++++++++++++++++++++++++++",
"+######################+####+#######################++###################################################+",
"+#####################++###++######################+++##################################################++",
"+##@@@@@@@@@@@@@@@@@@@++##@++##@@@@@@@@@@@@@@@@@@@@+++##@@@@@@@@@@@@@@@@@@@@@@@@@@@@@@@@@@@@@@@@@@@@@@@@++",
"+##@@@@@@@@@@@@@@@@@@@++##@++##@@@@@@@@@@@@@@@@@@@@+++##@@@@@@@@@@@@@@@@@@@@@@@@@@@@@@@@@@@@@@@@@@@@@@@@++",
"+##@@+++++++++++++++++++#++++#++++++++++++++++++#@@+++##@@+++++++++++++++++++++++++++++++++++++++++++#@@++",
"+##@@++++++++++++++++++++++++++++++++++++++++++##@@+++##@@++++++++++++++++++++++++++++++++++++++++++##@@++",
"+##@@++@@@@@@@@@@@@@@@@@@@@@@@@@@@@@@@@@@@@@@@+##@@+++##@@++@@@@@@@@@@@@@@@@@@@@@@@@@@@@@@@@@@@@@@@+##@@++",
"+##@@++@@@@@@@@@@@@@@@@@@@@@@@@@@@@@@@@@@@@@@@+##@@+++##@@++@@@@@@@@@@@@@@@@@@@@@@@@@@@@@@@@@@@@@@@+##@@++",
"+##@@++@@@@@@@@@@@@@@@@@@@@@@@@@@@@@@@@@@@@@@@+##@@+++##@@++@@@@@@@@@@@@@@@@@@@@@@@@@@@@@@@@@@@@@@@+##@@++",
"+##@@++@@@@@@@@@@@@@@@@@@@@@@@@@@@@@@@@@@@@@@@+##@@+++##@@++@@@@@@@@@@@@@@@@@@@@@@@@@@@@@@@@@@@@@@@+##@@++",
"+##@@++@@@@@@@@@@@@@@@@@@@@@@@@@@@@@@@@@@@@@@@+##@@+++##@@++@@@@@@@@@@@@@@@@@@@@@@@@@@@@@@@@@@@@@@@+##@@++",
"+##@@++@@@@@@@@@@@@@@@@@@@@@@@@@@@@@@@@@@@@@@@+##@@+++##@@++@@@@@@@@@@@@@@@@@@@@@@@@@@@@@@@@@@@@@@@+##@@++",
"+##@@++@@@@@@@@@@@@@@@@@@@@@@@@@@@@@@@@@@@@@@@+##@@+++##@@++@@@@@@@@@@@@@@@@@@@@@@@@@@@@@@@@@@@@@@@+##@@++",
"+##@@++@@@@@@@@@@@@@@@@@@@@@@@@@@@@@@@@@@@@@@@+##@@+++##@@++@@@@@@@@@@@@@@@@@@@@@@@@@@@@@@@@@@@@@@@+##@@++",
"+##@@++@@@@@@@@@@@@@@@@@@@@@@@@@@@@@@@@@@@@@@@+##@@+++##@@++@@@@@@@@@@@@@@@@@@@@@@@@@@@@@@@@@@@@@@@+##@@++",
"+##@@++@@@@@@@@@@@@@@@@@@@@@@@@@@@@@@@@@@@@@@@+##@@+++##@@++@@@@@@@@@@@@@@@@@@@@@@@@@@@@@@@@@@@@@@@+##@@++",
"+##@@++@@@@@@@@@@@@@@@@@@@@@@@@@@@@@@@@@@@@@@@+##@@+++##@@++@@@@@@@@@@@@@@@@@@@@@@@@@@@@@@@@@@@@@@@+##@@++",
"+##@@++@@@@@@@@@@@@@@@@@@@@@@@@@@@@@@@@@@@@@@@+##@@+++##@@++@@@@@@@@@@@@@@@@@@@@@@@@@@@@@@@@@@@@@@@+##@@++",
"+##@@++@@@@@@@@@@@@@@@@@@@@@@@@@@@@@@@@@@@@@@@+##@@+++##@@++@@@@@@@@@@@@@@@@@@@@@@@@@@@@@@@@@@@@@@@+##@@++",
"+##@@++@@@@@@@@@@@@@@@@@@@@@@@@@@@@@@@@@@@@@@@+##@@+++##@@++@@@@@@@@@@@@@@@@@@@@@@@@@@@@@@@@@@@@@@@+##@@++",
"+##@@++@@@@@@@@@@@@@@@@@@@@@@@@@@@@@@@@@@@@@@@+##@@+++##@@++@@@@@@@@@@@@@@@@@@@@@@@@@@@@@@@@@@@@@@@+##@@++",
"+#+++++@@@@@@@@@@@@@@@@@@@@@@@@@@@@@@@@@@@@@@@+#++++++##@@++@@@@@@@@@@@@@@@@@@@@@@@@@@@@@@@@@@@@@@@+##@@++",
"+++++++@@@@@@@@@@@@@@@@@@@@@@@@@@@@@@@@@@@@@@@++++++++##@@++@@@@@@@@@@@@@@@@@@@@@@@@@@@@@@@@@@@@@@@+##@@++",
"+#####+@@@@@@@@@@@@@@@@@@@@@@@@@@@@@@@@@@@@@@@+#####++##@@++@@@@@@@@@@@@@@@@@@@@@@@@@@@@@@@@@@@@@@@+##@@++",
"+####++@@@@@@@@@@@@@@@@@@@@@@@@@@@@@@@@@@@@@@@+####+++##@@++@@@@@@@@@@@@@@@@@@@@@@@@@@@@@@@@@@@@@@@+##@@++",
"+##@@++@@@@@@@@@@@@@@@@@@@@@@@@@@@@@@@@@@@@@@@+##@@+++##@@++@@@@@@@@@@@@@@@@@@@@@@@@@@@@@@@@@@@@@@@+##@@++",
"+#+++++@@@@@@@@@@@@@@@@@@@@@@@@@@@@@@@@@@@@@@@+#++++++##@@++@@@@@@@@@@@@@@@@@@@@@@@@@@@@@@@@@@@@@@@+##@@++",
"+++++++@@@@@@@@@@@@@@@@@@@@@@@@@@@@@@@@@@@@@@@++++++++##@@++@@@@@@@@@@@@@@@@@@@@@@@@@@@@@@@@@@@@@@@+##@@++",
"+#####+@@@@@@@@@@@@@@@@@@@@@@@@@@@@@@@@@@@@@@@+#####++##@@++@@@@@@@@@@@@@@@@@@@@@@@@@@@@@@@@@@@@@@@+##@@++",
"+####++@@@@@@@@@@@@@@@@@@@@@@@@@@@@@@@@@@@@@@@+####+++##@@++@@@@@@@@@@@@@@@@@@@@@@@@@@@@@@@@@@@@@@@+##@@++",
"+##@@++@@@@@@@@@@@@@@@@@@@@@@@@@@@@@@@@@@@@@@@+##@@+++##@@++@@@@@@@@@@@@@@@@@@@@@@@@@@@@@@@@@@@@@@@+##@@++",
"+##@@++@@@@@@@@@@@@@@@@@@@@@@@@@@@@@@@@@@@@@@@+##@@+++##@@++@@@@@@@@@@@@@@@@@@@@@@@@@@@@@@@@@@@@@@@+##@@++",
"+##@@++@@@@@@@@@@@@@@@@@@@@@@@@@@@@@@@@@@@@@@@+##@@+++##@@++@@@@@@@@@@@@@@@@@@@@@@@@@@@@@@@@@@@@@@@+##@@++",
"+##@@++@@@@@@@@@@@@@@@@@@@@@@@@@@@@@@@@@@@@@@@+##@@+++##@@++@@@@@@@@@@@@@@@@@@@@@@@@@@@@@@@@@@@@@@@+##@@++",
"+##@@++@@@@@@@@@@@@@@@@@@@@@@@@@@@@@@@@@@@@@@@+##@@+++##@@++@@@@@@@@@@@@@@@@@@@@@@@@@@@@@@@@@@@@@@@+##@@++",
"+##@@++@@@@@@@@@@@@@@@@@@@@@@@@@@@@@@@@@@@@@@@+##@@+++##@@++@@@@@@@@@@@@@@@@@@@@@@@@@@@@@@@@@@@@@@@+##@@++",
"+##@@++@@@@@@@@@@@@@@@@@@@@@@@@@@@@@@@@@@@@@@@+##@@+++##@@++@@@@@@@@@@@@@@@@@@@@@@@@@@@@@@@@@@@@@@@+##@@++",
"+##@@++@@@@@@@@@@@@@@@@@@@@@@@@@@@@@@@@@@@@@@@+##@@+++##@@++@@@@@@@@@@@@@@@@@@@@@@@@@@@@@@@@@@@@@@@+##@@++",
"+##@@++@@@@@@@@@@@@@@@@@@@@@@@@@@@@@@@@@@@@@@@+##@@+++##@@++@@@@@@@@@@@@@@@@@@@@@@@@@@@@@@@@@@@@@@@+##@@++",
"+##@@++@@@@@@@@@@@@@@@@@@@@@@@@@@@@@@@@@@@@@@@+##@@+++##@@++@@@@@@@@@@@@@@@@@@@@@@@@@@@@@@@@@@@@@@@+##@@++",
"+##@@++@@@@@@@@@@@@@@@@@@@@@@@@@@@@@@@@@@@@@@@+##@@+++##@@++@@@@@@@@@@@@@@@@@@@@@@@@@@@@@@@@@@@@@@@+##@@++",
"+##@@++@@@@@@@@@@@@@@@@@@@@@@@@@@@@@@@@@@@@@@@+##@@+++##@@++@@@@@@@@@@@@@@@@@@@@@@@@@@@@@@@@@@@@@@@+##@@++",
"+##@@++@@@@@@@@@@@@@@@@@@@@@@@@@@@@@@@@@@@@@@@+##@@+++##@@++@@@@@@@@@@@@@@@@@@@@@@@@@@@@@@@@@@@@@@@+##@@++",
"+##@@++@@@@@@@@@@@@@@@@@@@@@@@@@@@@@@@@@@@@@@@+##@@+++##@@++@@@@@@@@@@@@@@@@@@@@@@@@@@@@@@@@@@@@@@@+##@@++",
"+##@@++@@@@@@@@@@@@@@@@@@@@@@@@@@@@@@@@@@@@@@@+##@@+++##@@++@@@@@@@@@@@@@@@@@@@@@@@@@@@@@@@@@@@@@@@+##@@++",
"+##@@++++++++++++++++++++++++++++++++++++++++++##@@+++##@@++++++++++++++++++++++++++++++++++++++++++##@@++",
"+##@@+#################+####+####################@@+++##@@+###########################################@@++",
"+##@@#################++###++####################@@+++##@@############################################@@++",
"+##@@@@@@@@@@@@@@@@@@@++##@++##@@@@@@@@@@@@@@@@@@@@+++##@@@@@@@@@@@@@@@@@@@@@@@@@@@@@@@@@@@@@@@@@@@@@@@@++",
"+##@@@@@@@@@@@@@@@@@@@++##@++##@@@@@@@@@@@@@@@@@@@@+++##@@@@@@@@@@@@@@@@@@@@@@@@@@@@@@@@@@@@@@@@@@@@@@@@++",
"+#++++++++++++++++++++++#++++#++++++++++++++++++++++++#+++++++++++++++++++++++++++++++++++++++++++++++++++",
"++++++++++++++++++++++++++++++++++++++++++++++++++++++++++++++++++++++++++++++++++++++++++++++++++++++++++",
"                                                                                                          ",
" $$$$$$$$$$$$$$$$$$$$$$ $$$$ $$$$$$$$$$$$$$$$$$$$$$$  $$$$$$$$$$$$$$$$$$$$$$$$$$$$$$$$$$$$$$$$$$$$$$$$$$$ ",
" $$$$$$$$$$$$$$$$$$$$$  $$$  $$$$$$$$$$$$$$$$$$$$$$   $$$$$$$$$$$$$$$$$$$$$$$$$$$$$$$$$$$$$$$$$$$$$$$$$$  ",
" $$...................  $$.  $$....................   $$................................................  ",
" $$...................  $$.  $$....................   $$................................................  ",
" $$..                   $    $                  $..   $$..                                           $..  ",
" $$..                                          $$..   $$..                                          $$..  ",
" $$..  ....................................... $$..   $$..  ....................................... $$..  ",
" $$..  ....................................... $$..   $$..  ....................................... $$..  ",
" $$..  ....................................... $$..   $$..  ....................................... $$..  ",
" $$..  ....................................... $$..   $$..  ....................................... $$..  ",
" $$..  ....................................... $$..   $$..  ....................................... $$..  ",
" $$..  ....................................... $$..   $$..  ....................................... $$..  ",
" $$..  ....................................... $$..   $$..  ....................................... $$..  ",
" $$..  ....................................... $$..   $$..  ....................................... $$..  ",
" $$..  ....................................... $$..   $$..  ....................................... $$..  ",
" $$..  ....................................... $$..   $$..  ....................................... $$..  ",
" $$..  ....................................... $$..   $$..  ....................................... $$..  ",
" $$..  ....................................... $$..   $$..  ....................................... $$..  ",
" $$..  ....................................... $$..   $$..  ....................................... $$..  ",
" $$..  ....................................... $$..   $$..  ....................................... $$..  ",
" $$..  ....................................... $$..   $$..  ....................................... $$..  ",
" $     ....................................... $      $$..  ....................................... $$..  ",
"       .......................................        $$..  ....................................... $$..  ",
" $$$$$ ....................................... $$$$$  $$..  ....................................... $$..  ",
" $$$$  ....................................... $$$$   $$..  ....................................... $$..  ",
" $$..  ....................................... $$..   $$..  ....................................... $$..  ",
" $     ....................................... $      $$..  ....................................... $$..  ",
"       .......................................        $$..  ....................................... $$..  ",
" $$$$$ ....................................... $$$$$  $$..  ....................................... $$..  ",
" $$$$  ....................................... $$$$   $$..  ....................................... $$..  ",
" $$..  ....................................... $$..   $$..  ....................................... $$..  ",
" $$..  ....................................... $$..   $$..  ....................................... $$..  ",
" $$..  ....................................... $$..   $$..  ....................................... $$..  ",
" $$..  ....................................... $$..   $$..  ....................................... $$..  ",
" $$..  ....................................... $$..   $$..  ....................................... $$..  ",
" $$..  ....................................... $$..   $$..  ....................................... $$..  ",
" $$..  ....................................... $$..   $$..  ....................................... $$..  ",
" $$..  ....................................... $$..   $$..  ....................................... $$..  ",
" $$..  ....................................... $$..   $$..  ....................................... $$..  ",
" $$..  ....................................... $$..   $$..  ....................................... $$..  ",
" $$..  ....................................... $$..   $$..  ....................................... $$..  ",
" $$..  ....................................... $$..   $$..  ....................................... $$..  ",
" $$..  ....................................... $$..   $$..  ....................................... $$..  ",
" $$..  ....................................... $$..   $$..  ....................................... $$..  ",
" $$..  ....................................... $$..   $$..  ....................................... $$..  ",
" $$..                                          $$..   $$..                                          $$..  ",
" $$.. $$$$$$$$$$$$$$$$$ $$$$ $$$$$$$$$$$$$$$$$$$$..   $$.. $$$$$$$$$$$$$$$$$$$$$$$$$$$$$$$$$$$$$$$$$$$..  ",
" $$..$$$$$$$$$$$$$$$$$  $$$  $$$$$$$$$$$$$$$$$$$$..   $$..$$$$$$$$$$$$$$$$$$$$$$$$$$$$$$$$$$$$$$$$$$$$..  ",
" $$...................  $$.  $$....................   $$................................................  ",
" $$...................  $$.  $$....................   $$................................................  ",
" $                      $    $                        $                                                   ",
"                                                                                                          ",
"XXXXXXXXXXXXXXXXXXXXXXXXXXXXXXXXXXXXXXXXXXXXXXXXXXXXXXXXXXXXXXXXXXXXXXXXXXXXXXXXXXXXXXXXXXXXXXXXXXXXXXXXXX",
"XOOOOOOOOOOOOOOOOOOOOOOXOOOOXOOOOOOOOOOOOOOOOOOOOOOOXXOOOOOOOOOOOOOOOOOOOOOOOOOOOOOOOOOOOOOOOOOOOOOOOOOOOX",
"XOOOOOOOOOOOOOOOOOOOOOXXOOOXXOOOOOOOOOOOOOOOOOOOOOOXXXOOOOOOOOOOOOOOOOOOOOOOOOOOOOOOOOOOOOOOOOOOOOOOOOOOXX",
"XOOoooooooooooooooooooXXOOoXXOOooooooooooooooooooooXXXOOooooooooooooooooooooooooooooooooooooooooooooooooXX",
"XOOoooooooooooooooooooXXOOoXXOOooooooooooooooooooooXXXOOooooooooooooooooooooooooooooooooooooooooooooooooXX",
"XOOooXXXXXXXXXXXXXXXXXXXOXXXXOXXXXXXXXXXXXXXXXXXOooXXXOOooXXXXXXXXXXXXXXXXXXXXXXXXXXXXXXXXXXXXXXXXXXXOooXX",
"XOOooXXXXXXXXXXXXXXXXXXXXXXXXXXXXXXXXXXXXXXXXXXOOooXXXOOooXXXXXXXXXXXXXXXXXXXXXXXXXXXXXXXXXXXXXXXXXXOOooXX",
"XOOooXXoooooooooooooooooooooooooooooooooooooooXOOooXXXOOooXXoooooooooooooooooooooooooooooooooooooooXOOooXX",
"XOOooXXoooooooooooooooooooooooooooooooooooooooXOOooXXXOOooXXoooooooooooooooooooooooooooooooooooooooXOOooXX",
"XOOooXXoooooooooooooooooooooooooooooooooooooooXOOooXXXOOooXXoooooooooooooooooooooooooooooooooooooooXOOooXX",
"XOOooXXoooooooooooooooooooooooooooooooooooooooXOOooXXXOOooXXoooooooooooooooooooooooooooooooooooooooXOOooXX",
"XOOooXXoooooooooooooooooooooooooooooooooooooooXOOooXXXOOooXXoooooooooooooooooooooooooooooooooooooooXOOooXX",
"XOOooXXoooooooooooooooooooooooooooooooooooooooXOOooXXXOOooXXoooooooooooooooooooooooooooooooooooooooXOOooXX",
"XOOooXXoooooooooooooooooooooooooooooooooooooooXOOooXXXOOooXXoooooooooooooooooooooooooooooooooooooooXOOooXX",
"XOOooXXoooooooooooooooooooooooooooooooooooooooXOOooXXXOOooXXoooooooooooooooooooooooooooooooooooooooXOOooXX",
"XOOooXXoooooooooooooooooooooooooooooooooooooooXOOooXXXOOooXXoooooooooooooooooooooooooooooooooooooooXOOooXX",
"XOOooXXoooooooooooooooooooooooooooooooooooooooXOOooXXXOOooXXoooooooooooooooooooooooooooooooooooooooXOOooXX",
"XOOooXXoooooooooooooooooooooooooooooooooooooooXOOooXXXOOooXXoooooooooooooooooooooooooooooooooooooooXOOooXX",
"XOOooXXoooooooooooooooooooooooooooooooooooooooXOOooXXXOOooXXoooooooooooooooooooooooooooooooooooooooXOOooXX",
"XOOooXXoooooooooooooooooooooooooooooooooooooooXOOooXXXOOooXXoooooooooooooooooooooooooooooooooooooooXOOooXX",
"XOOooXXoooooooooooooooooooooooooooooooooooooooXOOooXXXOOooXXoooooooooooooooooooooooooooooooooooooooXOOooXX",
"XOOooXXoooooooooooooooooooooooooooooooooooooooXOOooXXXOOooXXoooooooooooooooooooooooooooooooooooooooXOOooXX",
"XOXXXXXoooooooooooooooooooooooooooooooooooooooXOXXXXXXOOooXXoooooooooooooooooooooooooooooooooooooooXOOooXX",
"XXXXXXXoooooooooooooooooooooooooooooooooooooooXXXXXXXXOOooXXoooooooooooooooooooooooooooooooooooooooXOOooXX",
"XOOOOOXoooooooooooooooooooooooooooooooooooooooXOOOOOXXOOooXXoooooooooooooooooooooooooooooooooooooooXOOooXX",
"XOOOOXXoooooooooooooooooooooooooooooooooooooooXOOOOXXXOOooXXoooooooooooooooooooooooooooooooooooooooXOOooXX",
"XOOooXXoooooooooooooooooooooooooooooooooooooooXOOooXXXOOooXXoooooooooooooooooooooooooooooooooooooooXOOooXX",
"XOXXXXXoooooooooooooooooooooooooooooooooooooooXOXXXXXXOOooXXoooooooooooooooooooooooooooooooooooooooXOOooXX",
"XXXXXXXoooooooooooooooooooooooooooooooooooooooXXXXXXXXOOooXXoooooooooooooooooooooooooooooooooooooooXOOooXX",
"XOOOOOXoooooooooooooooooooooooooooooooooooooooXOOOOOXXOOooXXoooooooooooooooooooooooooooooooooooooooXOOooXX",
"XOOOOXXoooooooooooooooooooooooooooooooooooooooXOOOOXXXOOooXXoooooooooooooooooooooooooooooooooooooooXOOooXX",
"XOOooXXoooooooooooooooooooooooooooooooooooooooXOOooXXXOOooXXoooooooooooooooooooooooooooooooooooooooXOOooXX",
"XOOooXXoooooooooooooooooooooooooooooooooooooooXOOooXXXOOooXXoooooooooooooooooooooooooooooooooooooooXOOooXX",
"XOOooXXoooooooooooooooooooooooooooooooooooooooXOOooXXXOOooXXoooooooooooooooooooooooooooooooooooooooXOOooXX",
"XOOooXXoooooooooooooooooooooooooooooooooooooooXOOooXXXOOooXXoooooooooooooooooooooooooooooooooooooooXOOooXX",
"XOOooXXoooooooooooooooooooooooooooooooooooooooXOOooXXXOOooXXoooooooooooooooooooooooooooooooooooooooXOOooXX",
"XOOooXXoooooooooooooooooooooooooooooooooooooooXOOooXXXOOooXXoooooooooooooooooooooooooooooooooooooooXOOooXX",
"XOOooXXoooooooooooooooooooooooooooooooooooooooXOOooXXXOOooXXoooooooooooooooooooooooooooooooooooooooXOOooXX",
"XOOooXXoooooooooooooooooooooooooooooooooooooooXOOooXXXOOooXXoooooooooooooooooooooooooooooooooooooooXOOooXX",
"XOOooXXoooooooooooooooooooooooooooooooooooooooXOOooXXXOOooXXoooooooooooooooooooooooooooooooooooooooXOOooXX",
"XOOooXXoooooooooooooooooooooooooooooooooooooooXOOooXXXOOooXXoooooooooooooooooooooooooooooooooooooooXOOooXX",
"XOOooXXoooooooooooooooooooooooooooooooooooooooXOOooXXXOOooXXoooooooooooooooooooooooooooooooooooooooXOOooXX",
"XOOooXXoooooooooooooooooooooooooooooooooooooooXOOooXXXOOooXXoooooooooooooooooooooooooooooooooooooooXOOooXX",
"XOOooXXoooooooooooooooooooooooooooooooooooooooXOOooXXXOOooXXoooooooooooooooooooooooooooooooooooooooXOOooXX",
"XOOooXXoooooooooooooooooooooooooooooooooooooooXOOooXXXOOooXXoooooooooooooooooooooooooooooooooooooooXOOooXX",
"XOOooXXoooooooooooooooooooooooooooooooooooooooXOOooXXXOOooXXoooooooooooooooooooooooooooooooooooooooXOOooXX",
"XOOooXXXXXXXXXXXXXXXXXXXXXXXXXXXXXXXXXXXXXXXXXXOOooXXXOOooXXXXXXXXXXXXXXXXXXXXXXXXXXXXXXXXXXXXXXXXXXOOooXX",
"XOOooXOOOOOOOOOOOOOOOOOXOOOOXOOOOOOOOOOOOOOOOOOOOooXXXOOooXOOOOOOOOOOOOOOOOOOOOOOOOOOOOOOOOOOOOOOOOOOOooXX",
"XOOooOOOOOOOOOOOOOOOOOXXOOOXXOOOOOOOOOOOOOOOOOOOOooXXXOOooOOOOOOOOOOOOOOOOOOOOOOOOOOOOOOOOOOOOOOOOOOOOooXX",
"XOOoooooooooooooooooooXXOOoXXOOooooooooooooooooooooXXXOOooooooooooooooooooooooooooooooooooooooooooooooooXX",
"XOOoooooooooooooooooooXXOOoXXOOooooooooooooooooooooXXXOOooooooooooooooooooooooooooooooooooooooooooooooooXX",
"XOXXXXXXXXXXXXXXXXXXXXXXOXXXXOXXXXXXXXXXXXXXXXXXXXXXXXOXXXXXXXXXXXXXXXXXXXXXXXXXXXXXXXXXXXXXXXXXXXXXXXXXXX",
"XXXXXXXXXXXXXXXXXXXXXXXXXXXXXXXXXXXXXXXXXXXXXXXXXXXXXXXXXXXXXXXXXXXXXXXXXXXXXXXXXXXXXXXXXXXXXXXXXXXXXXXXXX"
};
