/* XPM */
static char *border[] = {
/* columns rows colors chars-per-pixel */
"106 159 10 1 ",
"  c #2E3436",
". c #555753",
"X c #A40000",
"o c #CC0000",
"O c #EF2929",
"+ c #204A87",
"@ c #3465A4",
"# c #729FCF",
"$ c #888A85",
"% c None",
/* pixels */
"++++++++++++++++++++++++++++++++++++++++++++++++++++++++++++++++++++++++++++++++++++++++++++++++++++++++++",
"+######################+####+#######################++###################################################+",
"+#####################++###++######################+++##################################################++",
"+##@@@@@@@@@@@@@@@@@@@++##@++##@@@@@@@@@@@@@@@@@@@@+++##@@@@@@@@@@@@@@@@@@@@@@@@@@@@@@@@@@@@@@@@@@@@@@@@++",
"+##@@@@@@@@@@@@@@@@@@@++##@++##@@@@@@@@@@@@@@@@@@@@+++##@@@@@@@@@@@@@@@@@@@@@@@@@@@@@@@@@@@@@@@@@@@@@@@@++",
"+##@@+++++++++++++++++++#++++#++++++++++++++++++#@@+++##@@+++++++++++++++++++++++++++++++++++++++++++#@@++",
"+##@@++++++++++++++++++++++++++++++++++++++++++##@@+++##@@++++++++++++++++++++++++++++++++++++++++++##@@++",
"+##@@++%%%%%%%%%%%%%%%%%%%%%%%%%%%%%%%%%%%%%%%+##@@+++##@@++%%%%%%%%%%%%%%%%%%%%%%%%%%%%%%%%%%%%%%%+##@@++",
"+##@@++%%%%%%%%%%%%%%%%%%%%%%%%%%%%%%%%%%%%%%%+##@@+++##@@++%%%%%%%%%%%%%%%%%%%%%%%%%%%%%%%%%%%%%%%+##@@++",
"+##@@++%%%%%%%%%%%%%%%%%%%%%%%%%%%%%%%%%%%%%%%+##@@+++##@@++%%%%%%%%%%%%%%%%%%%%%%%%%%%%%%%%%%%%%%%+##@@++",
"+##@@++%%%%%%%%%%%%%%%%%%%%%%%%%%%%%%%%%%%%%%%+##@@+++##@@++%%%%%%%%%%%%%%%%%%%%%%%%%%%%%%%%%%%%%%%+##@@++",
"+##@@++%%%%%%%%%%%%%%%%%%%%%%%%%%%%%%%%%%%%%%%+##@@+++##@@++%%%%%%%%%%%%%%%%%%%%%%%%%%%%%%%%%%%%%%%+##@@++",
"+##@@++%%%%%%%%%%%%%%%%%%%%%%%%%%%%%%%%%%%%%%%+##@@+++##@@++%%%%%%%%%%%%%%%%%%%%%%%%%%%%%%%%%%%%%%%+##@@++",
"+##@@++%%%%%%%%%%%%%%%%%%%%%%%%%%%%%%%%%%%%%%%+##@@+++##@@++%%%%%%%%%%%%%%%%%%%%%%%%%%%%%%%%%%%%%%%+##@@++",
"+##@@++%%%%%%%%%%%%%%%%%%%%%%%%%%%%%%%%%%%%%%%+##@@+++##@@++%%%%%%%%%%%%%%%%%%%%%%%%%%%%%%%%%%%%%%%+##@@++",
"+##@@++%%%%%%%%%%%%%%%%%%%%%%%%%%%%%%%%%%%%%%%+##@@+++##@@++%%%%%%%%%%%%%%%%%%%%%%%%%%%%%%%%%%%%%%%+##@@++",
"+##@@++%%%%%%%%%%%%%%%%%%%%%%%%%%%%%%%%%%%%%%%+##@@+++##@@++%%%%%%%%%%%%%%%%%%%%%%%%%%%%%%%%%%%%%%%+##@@++",
"+##@@++%%%%%%%%%%%%%%%%%%%%%%%%%%%%%%%%%%%%%%%+##@@+++##@@++%%%%%%%%%%%%%%%%%%%%%%%%%%%%%%%%%%%%%%%+##@@++",
"+##@@++%%%%%%%%%%%%%%%%%%%%%%%%%%%%%%%%%%%%%%%+##@@+++##@@++%%%%%%%%%%%%%%%%%%%%%%%%%%%%%%%%%%%%%%%+##@@++",
"+##@@++%%%%%%%%%%%%%%%%%%%%%%%%%%%%%%%%%%%%%%%+##@@+++##@@++%%%%%%%%%%%%%%%%%%%%%%%%%%%%%%%%%%%%%%%+##@@++",
"+##@@++%%%%%%%%%%%%%%%%%%%%%%%%%%%%%%%%%%%%%%%+##@@+++##@@++%%%%%%%%%%%%%%%%%%%%%%%%%%%%%%%%%%%%%%%+##@@++",
"+##@@++%%%%%%%%%%%%%%%%%%%%%%%%%%%%%%%%%%%%%%%+##@@+++##@@++%%%%%%%%%%%%%%%%%%%%%%%%%%%%%%%%%%%%%%%+##@@++",
"+#+++++%%%%%%%%%%%%%%%%%%%%%%%%%%%%%%%%%%%%%%%+#++++++##@@++%%%%%%%%%%%%%%%%%%%%%%%%%%%%%%%%%%%%%%%+##@@++",
"+++++++%%%%%%%%%%%%%%%%%%%%%%%%%%%%%%%%%%%%%%%++++++++##@@++%%%%%%%%%%%%%%%%%%%%%%%%%%%%%%%%%%%%%%%+##@@++",
"+#####+%%%%%%%%%%%%%%%%%%%%%%%%%%%%%%%%%%%%%%%+#####++##@@++%%%%%%%%%%%%%%%%%%%%%%%%%%%%%%%%%%%%%%%+##@@++",
"+####++%%%%%%%%%%%%%%%%%%%%%%%%%%%%%%%%%%%%%%%+####+++##@@++%%%%%%%%%%%%%%%%%%%%%%%%%%%%%%%%%%%%%%%+##@@++",
"+##@@++%%%%%%%%%%%%%%%%%%%%%%%%%%%%%%%%%%%%%%%+##@@+++##@@++%%%%%%%%%%%%%%%%%%%%%%%%%%%%%%%%%%%%%%%+##@@++",
"+#+++++%%%%%%%%%%%%%%%%%%%%%%%%%%%%%%%%%%%%%%%+#++++++##@@++%%%%%%%%%%%%%%%%%%%%%%%%%%%%%%%%%%%%%%%+##@@++",
"+++++++%%%%%%%%%%%%%%%%%%%%%%%%%%%%%%%%%%%%%%%++++++++##@@++%%%%%%%%%%%%%%%%%%%%%%%%%%%%%%%%%%%%%%%+##@@++",
"+#####+%%%%%%%%%%%%%%%%%%%%%%%%%%%%%%%%%%%%%%%+#####++##@@++%%%%%%%%%%%%%%%%%%%%%%%%%%%%%%%%%%%%%%%+##@@++",
"+####++%%%%%%%%%%%%%%%%%%%%%%%%%%%%%%%%%%%%%%%+####+++##@@++%%%%%%%%%%%%%%%%%%%%%%%%%%%%%%%%%%%%%%%+##@@++",
"+##@@++%%%%%%%%%%%%%%%%%%%%%%%%%%%%%%%%%%%%%%%+##@@+++##@@++%%%%%%%%%%%%%%%%%%%%%%%%%%%%%%%%%%%%%%%+##@@++",
"+##@@++%%%%%%%%%%%%%%%%%%%%%%%%%%%%%%%%%%%%%%%+##@@+++##@@++%%%%%%%%%%%%%%%%%%%%%%%%%%%%%%%%%%%%%%%+##@@++",
"+##@@++%%%%%%%%%%%%%%%%%%%%%%%%%%%%%%%%%%%%%%%+##@@+++##@@++%%%%%%%%%%%%%%%%%%%%%%%%%%%%%%%%%%%%%%%+##@@++",
"+##@@++%%%%%%%%%%%%%%%%%%%%%%%%%%%%%%%%%%%%%%%+##@@+++##@@++%%%%%%%%%%%%%%%%%%%%%%%%%%%%%%%%%%%%%%%+##@@++",
"+##@@++%%%%%%%%%%%%%%%%%%%%%%%%%%%%%%%%%%%%%%%+##@@+++##@@++%%%%%%%%%%%%%%%%%%%%%%%%%%%%%%%%%%%%%%%+##@@++",
"+##@@++%%%%%%%%%%%%%%%%%%%%%%%%%%%%%%%%%%%%%%%+##@@+++##@@++%%%%%%%%%%%%%%%%%%%%%%%%%%%%%%%%%%%%%%%+##@@++",
"+##@@++%%%%%%%%%%%%%%%%%%%%%%%%%%%%%%%%%%%%%%%+##@@+++##@@++%%%%%%%%%%%%%%%%%%%%%%%%%%%%%%%%%%%%%%%+##@@++",
"+##@@++%%%%%%%%%%%%%%%%%%%%%%%%%%%%%%%%%%%%%%%+##@@+++##@@++%%%%%%%%%%%%%%%%%%%%%%%%%%%%%%%%%%%%%%%+##@@++",
"+##@@++%%%%%%%%%%%%%%%%%%%%%%%%%%%%%%%%%%%%%%%+##@@+++##@@++%%%%%%%%%%%%%%%%%%%%%%%%%%%%%%%%%%%%%%%+##@@++",
"+##@@++%%%%%%%%%%%%%%%%%%%%%%%%%%%%%%%%%%%%%%%+##@@+++##@@++%%%%%%%%%%%%%%%%%%%%%%%%%%%%%%%%%%%%%%%+##@@++",
"+##@@++%%%%%%%%%%%%%%%%%%%%%%%%%%%%%%%%%%%%%%%+##@@+++##@@++%%%%%%%%%%%%%%%%%%%%%%%%%%%%%%%%%%%%%%%+##@@++",
"+##@@++%%%%%%%%%%%%%%%%%%%%%%%%%%%%%%%%%%%%%%%+##@@+++##@@++%%%%%%%%%%%%%%%%%%%%%%%%%%%%%%%%%%%%%%%+##@@++",
"+##@@++%%%%%%%%%%%%%%%%%%%%%%%%%%%%%%%%%%%%%%%+##@@+++##@@++%%%%%%%%%%%%%%%%%%%%%%%%%%%%%%%%%%%%%%%+##@@++",
"+##@@++%%%%%%%%%%%%%%%%%%%%%%%%%%%%%%%%%%%%%%%+##@@+++##@@++%%%%%%%%%%%%%%%%%%%%%%%%%%%%%%%%%%%%%%%+##@@++",
"+##@@++%%%%%%%%%%%%%%%%%%%%%%%%%%%%%%%%%%%%%%%+##@@+++##@@++%%%%%%%%%%%%%%%%%%%%%%%%%%%%%%%%%%%%%%%+##@@++",
"+##@@++++++++++++++++++++++++++++++++++++++++++##@@+++##@@++++++++++++++++++++++++++++++++++++++++++##@@++",
"+##@@+#################+####+####################@@+++##@@+###########################################@@++",
"+##@@#################++###++####################@@+++##@@############################################@@++",
"+##@@@@@@@@@@@@@@@@@@@++##@++##@@@@@@@@@@@@@@@@@@@@+++##@@@@@@@@@@@@@@@@@@@@@@@@@@@@@@@@@@@@@@@@@@@@@@@@++",
"+##@@@@@@@@@@@@@@@@@@@++##@++##@@@@@@@@@@@@@@@@@@@@+++##@@@@@@@@@@@@@@@@@@@@@@@@@@@@@@@@@@@@@@@@@@@@@@@@++",
"+#++++++++++++++++++++++#++++#++++++++++++++++++++++++#+++++++++++++++++++++++++++++++++++++++++++++++++++",
"++++++++++++++++++++++++++++++++++++++++++++++++++++++++++++++++++++++++++++++++++++++++++++++++++++++++++",
"                                                                                                          ",
" $$$$$$$$$$$$$$$$$$$$$$ $$$$ $$$$$$$$$$$$$$$$$$$$$$$  $$$$$$$$$$$$$$$$$$$$$$$$$$$$$$$$$$$$$$$$$$$$$$$$$$$ ",
" $$$$$$$$$$$$$$$$$$$$$  $$$  $$$$$$$$$$$$$$$$$$$$$$   $$$$$$$$$$$$$$$$$$$$$$$$$$$$$$$$$$$$$$$$$$$$$$$$$$  ",
" $$...................  $$.  $$....................   $$................................................  ",
" $$...................  $$.  $$....................   $$................................................  ",
" $$..                   $    $                  $..   $$..                                           $..  ",
" $$..                                          $$..   $$..                                          $$..  ",
" $$..  %%%%%%%%%%%%%%%%%%%%%%%%%%%%%%%%%%%%%%% $$..   $$..  %%%%%%%%%%%%%%%%%%%%%%%%%%%%%%%%%%%%%%% $$..  ",
" $$..  %%%%%%%%%%%%%%%%%%%%%%%%%%%%%%%%%%%%%%% $$..   $$..  %%%%%%%%%%%%%%%%%%%%%%%%%%%%%%%%%%%%%%% $$..  ",
" $$..  %%%%%%%%%%%%%%%%%%%%%%%%%%%%%%%%%%%%%%% $$..   $$..  %%%%%%%%%%%%%%%%%%%%%%%%%%%%%%%%%%%%%%% $$..  ",
" $$..  %%%%%%%%%%%%%%%%%%%%%%%%%%%%%%%%%%%%%%% $$..   $$..  %%%%%%%%%%%%%%%%%%%%%%%%%%%%%%%%%%%%%%% $$..  ",
" $$..  %%%%%%%%%%%%%%%%%%%%%%%%%%%%%%%%%%%%%%% $$..   $$..  %%%%%%%%%%%%%%%%%%%%%%%%%%%%%%%%%%%%%%% $$..  ",
" $$..  %%%%%%%%%%%%%%%%%%%%%%%%%%%%%%%%%%%%%%% $$..   $$..  %%%%%%%%%%%%%%%%%%%%%%%%%%%%%%%%%%%%%%% $$..  ",
" $$..  %%%%%%%%%%%%%%%%%%%%%%%%%%%%%%%%%%%%%%% $$..   $$..  %%%%%%%%%%%%%%%%%%%%%%%%%%%%%%%%%%%%%%% $$..  ",
" $$..  %%%%%%%%%%%%%%%%%%%%%%%%%%%%%%%%%%%%%%% $$..   $$..  %%%%%%%%%%%%%%%%%%%%%%%%%%%%%%%%%%%%%%% $$..  ",
" $$..  %%%%%%%%%%%%%%%%%%%%%%%%%%%%%%%%%%%%%%% $$..   $$..  %%%%%%%%%%%%%%%%%%%%%%%%%%%%%%%%%%%%%%% $$..  ",
" $$..  %%%%%%%%%%%%%%%%%%%%%%%%%%%%%%%%%%%%%%% $$..   $$..  %%%%%%%%%%%%%%%%%%%%%%%%%%%%%%%%%%%%%%% $$..  ",
" $$..  %%%%%%%%%%%%%%%%%%%%%%%%%%%%%%%%%%%%%%% $$..   $$..  %%%%%%%%%%%%%%%%%%%%%%%%%%%%%%%%%%%%%%% $$..  ",
" $$..  %%%%%%%%%%%%%%%%%%%%%%%%%%%%%%%%%%%%%%% $$..   $$..  %%%%%%%%%%%%%%%%%%%%%%%%%%%%%%%%%%%%%%% $$..  ",
" $$..  %%%%%%%%%%%%%%%%%%%%%%%%%%%%%%%%%%%%%%% $$..   $$..  %%%%%%%%%%%%%%%%%%%%%%%%%%%%%%%%%%%%%%% $$..  ",
" $$..  %%%%%%%%%%%%%%%%%%%%%%%%%%%%%%%%%%%%%%% $$..   $$..  %%%%%%%%%%%%%%%%%%%%%%%%%%%%%%%%%%%%%%% $$..  ",
" $$..  %%%%%%%%%%%%%%%%%%%%%%%%%%%%%%%%%%%%%%% $$..   $$..  %%%%%%%%%%%%%%%%%%%%%%%%%%%%%%%%%%%%%%% $$..  ",
" $     %%%%%%%%%%%%%%%%%%%%%%%%%%%%%%%%%%%%%%% $      $$..  %%%%%%%%%%%%%%%%%%%%%%%%%%%%%%%%%%%%%%% $$..  ",
"       %%%%%%%%%%%%%%%%%%%%%%%%%%%%%%%%%%%%%%%        $$..  %%%%%%%%%%%%%%%%%%%%%%%%%%%%%%%%%%%%%%% $$..  ",
" $$$$$ %%%%%%%%%%%%%%%%%%%%%%%%%%%%%%%%%%%%%%% $$$$$  $$..  %%%%%%%%%%%%%%%%%%%%%%%%%%%%%%%%%%%%%%% $$..  ",
" $$$$  %%%%%%%%%%%%%%%%%%%%%%%%%%%%%%%%%%%%%%% $$$$   $$..  %%%%%%%%%%%%%%%%%%%%%%%%%%%%%%%%%%%%%%% $$..  ",
" $$..  %%%%%%%%%%%%%%%%%%%%%%%%%%%%%%%%%%%%%%% $$..   $$..  %%%%%%%%%%%%%%%%%%%%%%%%%%%%%%%%%%%%%%% $$..  ",
" $     %%%%%%%%%%%%%%%%%%%%%%%%%%%%%%%%%%%%%%% $      $$..  %%%%%%%%%%%%%%%%%%%%%%%%%%%%%%%%%%%%%%% $$..  ",
"       %%%%%%%%%%%%%%%%%%%%%%%%%%%%%%%%%%%%%%%        $$..  %%%%%%%%%%%%%%%%%%%%%%%%%%%%%%%%%%%%%%% $$..  ",
" $$$$$ %%%%%%%%%%%%%%%%%%%%%%%%%%%%%%%%%%%%%%% $$$$$  $$..  %%%%%%%%%%%%%%%%%%%%%%%%%%%%%%%%%%%%%%% $$..  ",
" $$$$  %%%%%%%%%%%%%%%%%%%%%%%%%%%%%%%%%%%%%%% $$$$   $$..  %%%%%%%%%%%%%%%%%%%%%%%%%%%%%%%%%%%%%%% $$..  ",
" $$..  %%%%%%%%%%%%%%%%%%%%%%%%%%%%%%%%%%%%%%% $$..   $$..  %%%%%%%%%%%%%%%%%%%%%%%%%%%%%%%%%%%%%%% $$..  ",
" $$..  %%%%%%%%%%%%%%%%%%%%%%%%%%%%%%%%%%%%%%% $$..   $$..  %%%%%%%%%%%%%%%%%%%%%%%%%%%%%%%%%%%%%%% $$..  ",
" $$..  %%%%%%%%%%%%%%%%%%%%%%%%%%%%%%%%%%%%%%% $$..   $$..  %%%%%%%%%%%%%%%%%%%%%%%%%%%%%%%%%%%%%%% $$..  ",
" $$..  %%%%%%%%%%%%%%%%%%%%%%%%%%%%%%%%%%%%%%% $$..   $$..  %%%%%%%%%%%%%%%%%%%%%%%%%%%%%%%%%%%%%%% $$..  ",
" $$..  %%%%%%%%%%%%%%%%%%%%%%%%%%%%%%%%%%%%%%% $$..   $$..  %%%%%%%%%%%%%%%%%%%%%%%%%%%%%%%%%%%%%%% $$..  ",
" $$..  %%%%%%%%%%%%%%%%%%%%%%%%%%%%%%%%%%%%%%% $$..   $$..  %%%%%%%%%%%%%%%%%%%%%%%%%%%%%%%%%%%%%%% $$..  ",
" $$..  %%%%%%%%%%%%%%%%%%%%%%%%%%%%%%%%%%%%%%% $$..   $$..  %%%%%%%%%%%%%%%%%%%%%%%%%%%%%%%%%%%%%%% $$..  ",
" $$..  %%%%%%%%%%%%%%%%%%%%%%%%%%%%%%%%%%%%%%% $$..   $$..  %%%%%%%%%%%%%%%%%%%%%%%%%%%%%%%%%%%%%%% $$..  ",
" $$..  %%%%%%%%%%%%%%%%%%%%%%%%%%%%%%%%%%%%%%% $$..   $$..  %%%%%%%%%%%%%%%%%%%%%%%%%%%%%%%%%%%%%%% $$..  ",
" $$..  %%%%%%%%%%%%%%%%%%%%%%%%%%%%%%%%%%%%%%% $$..   $$..  %%%%%%%%%%%%%%%%%%%%%%%%%%%%%%%%%%%%%%% $$..  ",
" $$..  %%%%%%%%%%%%%%%%%%%%%%%%%%%%%%%%%%%%%%% $$..   $$..  %%%%%%%%%%%%%%%%%%%%%%%%%%%%%%%%%%%%%%% $$..  ",
" $$..  %%%%%%%%%%%%%%%%%%%%%%%%%%%%%%%%%%%%%%% $$..   $$..  %%%%%%%%%%%%%%%%%%%%%%%%%%%%%%%%%%%%%%% $$..  ",
" $$..  %%%%%%%%%%%%%%%%%%%%%%%%%%%%%%%%%%%%%%% $$..   $$..  %%%%%%%%%%%%%%%%%%%%%%%%%%%%%%%%%%%%%%% $$..  ",
" $$..  %%%%%%%%%%%%%%%%%%%%%%%%%%%%%%%%%%%%%%% $$..   $$..  %%%%%%%%%%%%%%%%%%%%%%%%%%%%%%%%%%%%%%% $$..  ",
" $$..  %%%%%%%%%%%%%%%%%%%%%%%%%%%%%%%%%%%%%%% $$..   $$..  %%%%%%%%%%%%%%%%%%%%%%%%%%%%%%%%%%%%%%% $$..  ",
" $$..                                          $$..   $$..                                          $$..  ",
" $$.. $$$$$$$$$$$$$$$$$ $$$$ $$$$$$$$$$$$$$$$$$$$..   $$.. $$$$$$$$$$$$$$$$$$$$$$$$$$$$$$$$$$$$$$$$$$$..  ",
" $$..$$$$$$$$$$$$$$$$$  $$$  $$$$$$$$$$$$$$$$$$$$..   $$..$$$$$$$$$$$$$$$$$$$$$$$$$$$$$$$$$$$$$$$$$$$$..  ",
" $$...................  $$.  $$....................   $$................................................  ",
" $$...................  $$.  $$....................   $$................................................  ",
" $                      $    $                        $                                                   ",
"                                                                                                          ",
"XXXXXXXXXXXXXXXXXXXXXXXXXXXXXXXXXXXXXXXXXXXXXXXXXXXXXXXXXXXXXXXXXXXXXXXXXXXXXXXXXXXXXXXXXXXXXXXXXXXXXXXXXX",
"XOOOOOOOOOOOOOOOOOOOOOOXOOOOXOOOOOOOOOOOOOOOOOOOOOOOXXOOOOOOOOOOOOOOOOOOOOOOOOOOOOOOOOOOOOOOOOOOOOOOOOOOOX",
"XOOOOOOOOOOOOOOOOOOOOOXXOOOXXOOOOOOOOOOOOOOOOOOOOOOXXXOOOOOOOOOOOOOOOOOOOOOOOOOOOOOOOOOOOOOOOOOOOOOOOOOOXX",
"XOOoooooooooooooooooooXXOOoXXOOooooooooooooooooooooXXXOOooooooooooooooooooooooooooooooooooooooooooooooooXX",
"XOOoooooooooooooooooooXXOOoXXOOooooooooooooooooooooXXXOOooooooooooooooooooooooooooooooooooooooooooooooooXX",
"XOOooXXXXXXXXXXXXXXXXXXXOXXXXOXXXXXXXXXXXXXXXXXXOooXXXOOooXXXXXXXXXXXXXXXXXXXXXXXXXXXXXXXXXXXXXXXXXXXOooXX",
"XOOooXXXXXXXXXXXXXXXXXXXXXXXXXXXXXXXXXXXXXXXXXXOOooXXXOOooXXXXXXXXXXXXXXXXXXXXXXXXXXXXXXXXXXXXXXXXXXOOooXX",
"XOOooXX%%%%%%%%%%%%%%%%%%%%%%%%%%%%%%%%%%%%%%%XOOooXXXOOooXX%%%%%%%%%%%%%%%%%%%%%%%%%%%%%%%%%%%%%%%XOOooXX",
"XOOooXX%%%%%%%%%%%%%%%%%%%%%%%%%%%%%%%%%%%%%%%XOOooXXXOOooXX%%%%%%%%%%%%%%%%%%%%%%%%%%%%%%%%%%%%%%%XOOooXX",
"XOOooXX%%%%%%%%%%%%%%%%%%%%%%%%%%%%%%%%%%%%%%%XOOooXXXOOooXX%%%%%%%%%%%%%%%%%%%%%%%%%%%%%%%%%%%%%%%XOOooXX",
"XOOooXX%%%%%%%%%%%%%%%%%%%%%%%%%%%%%%%%%%%%%%%XOOooXXXOOooXX%%%%%%%%%%%%%%%%%%%%%%%%%%%%%%%%%%%%%%%XOOooXX",
"XOOooXX%%%%%%%%%%%%%%%%%%%%%%%%%%%%%%%%%%%%%%%XOOooXXXOOooXX%%%%%%%%%%%%%%%%%%%%%%%%%%%%%%%%%%%%%%%XOOooXX",
"XOOooXX%%%%%%%%%%%%%%%%%%%%%%%%%%%%%%%%%%%%%%%XOOooXXXOOooXX%%%%%%%%%%%%%%%%%%%%%%%%%%%%%%%%%%%%%%%XOOooXX",
"XOOooXX%%%%%%%%%%%%%%%%%%%%%%%%%%%%%%%%%%%%%%%XOOooXXXOOooXX%%%%%%%%%%%%%%%%%%%%%%%%%%%%%%%%%%%%%%%XOOooXX",
"XOOooXX%%%%%%%%%%%%%%%%%%%%%%%%%%%%%%%%%%%%%%%XOOooXXXOOooXX%%%%%%%%%%%%%%%%%%%%%%%%%%%%%%%%%%%%%%%XOOooXX",
"XOOooXX%%%%%%%%%%%%%%%%%%%%%%%%%%%%%%%%%%%%%%%XOOooXXXOOooXX%%%%%%%%%%%%%%%%%%%%%%%%%%%%%%%%%%%%%%%XOOooXX",
"XOOooXX%%%%%%%%%%%%%%%%%%%%%%%%%%%%%%%%%%%%%%%XOOooXXXOOooXX%%%%%%%%%%%%%%%%%%%%%%%%%%%%%%%%%%%%%%%XOOooXX",
"XOOooXX%%%%%%%%%%%%%%%%%%%%%%%%%%%%%%%%%%%%%%%XOOooXXXOOooXX%%%%%%%%%%%%%%%%%%%%%%%%%%%%%%%%%%%%%%%XOOooXX",
"XOOooXX%%%%%%%%%%%%%%%%%%%%%%%%%%%%%%%%%%%%%%%XOOooXXXOOooXX%%%%%%%%%%%%%%%%%%%%%%%%%%%%%%%%%%%%%%%XOOooXX",
"XOOooXX%%%%%%%%%%%%%%%%%%%%%%%%%%%%%%%%%%%%%%%XOOooXXXOOooXX%%%%%%%%%%%%%%%%%%%%%%%%%%%%%%%%%%%%%%%XOOooXX",
"XOOooXX%%%%%%%%%%%%%%%%%%%%%%%%%%%%%%%%%%%%%%%XOOooXXXOOooXX%%%%%%%%%%%%%%%%%%%%%%%%%%%%%%%%%%%%%%%XOOooXX",
"XOOooXX%%%%%%%%%%%%%%%%%%%%%%%%%%%%%%%%%%%%%%%XOOooXXXOOooXX%%%%%%%%%%%%%%%%%%%%%%%%%%%%%%%%%%%%%%%XOOooXX",
"XOXXXXX%%%%%%%%%%%%%%%%%%%%%%%%%%%%%%%%%%%%%%%XOXXXXXXOOooXX%%%%%%%%%%%%%%%%%%%%%%%%%%%%%%%%%%%%%%%XOOooXX",
"XXXXXXX%%%%%%%%%%%%%%%%%%%%%%%%%%%%%%%%%%%%%%%XXXXXXXXOOooXX%%%%%%%%%%%%%%%%%%%%%%%%%%%%%%%%%%%%%%%XOOooXX",
"XOOOOOX%%%%%%%%%%%%%%%%%%%%%%%%%%%%%%%%%%%%%%%XOOOOOXXOOooXX%%%%%%%%%%%%%%%%%%%%%%%%%%%%%%%%%%%%%%%XOOooXX",
"XOOOOXX%%%%%%%%%%%%%%%%%%%%%%%%%%%%%%%%%%%%%%%XOOOOXXXOOooXX%%%%%%%%%%%%%%%%%%%%%%%%%%%%%%%%%%%%%%%XOOooXX",
"XOOooXX%%%%%%%%%%%%%%%%%%%%%%%%%%%%%%%%%%%%%%%XOOooXXXOOooXX%%%%%%%%%%%%%%%%%%%%%%%%%%%%%%%%%%%%%%%XOOooXX",
"XOXXXXX%%%%%%%%%%%%%%%%%%%%%%%%%%%%%%%%%%%%%%%XOXXXXXXOOooXX%%%%%%%%%%%%%%%%%%%%%%%%%%%%%%%%%%%%%%%XOOooXX",
"XXXXXXX%%%%%%%%%%%%%%%%%%%%%%%%%%%%%%%%%%%%%%%XXXXXXXXOOooXX%%%%%%%%%%%%%%%%%%%%%%%%%%%%%%%%%%%%%%%XOOooXX",
"XOOOOOX%%%%%%%%%%%%%%%%%%%%%%%%%%%%%%%%%%%%%%%XOOOOOXXOOooXX%%%%%%%%%%%%%%%%%%%%%%%%%%%%%%%%%%%%%%%XOOooXX",
"XOOOOXX%%%%%%%%%%%%%%%%%%%%%%%%%%%%%%%%%%%%%%%XOOOOXXXOOooXX%%%%%%%%%%%%%%%%%%%%%%%%%%%%%%%%%%%%%%%XOOooXX",
"XOOooXX%%%%%%%%%%%%%%%%%%%%%%%%%%%%%%%%%%%%%%%XOOooXXXOOooXX%%%%%%%%%%%%%%%%%%%%%%%%%%%%%%%%%%%%%%%XOOooXX",
"XOOooXX%%%%%%%%%%%%%%%%%%%%%%%%%%%%%%%%%%%%%%%XOOooXXXOOooXX%%%%%%%%%%%%%%%%%%%%%%%%%%%%%%%%%%%%%%%XOOooXX",
"XOOooXX%%%%%%%%%%%%%%%%%%%%%%%%%%%%%%%%%%%%%%%XOOooXXXOOooXX%%%%%%%%%%%%%%%%%%%%%%%%%%%%%%%%%%%%%%%XOOooXX",
"XOOooXX%%%%%%%%%%%%%%%%%%%%%%%%%%%%%%%%%%%%%%%XOOooXXXOOooXX%%%%%%%%%%%%%%%%%%%%%%%%%%%%%%%%%%%%%%%XOOooXX",
"XOOooXX%%%%%%%%%%%%%%%%%%%%%%%%%%%%%%%%%%%%%%%XOOooXXXOOooXX%%%%%%%%%%%%%%%%%%%%%%%%%%%%%%%%%%%%%%%XOOooXX",
"XOOooXX%%%%%%%%%%%%%%%%%%%%%%%%%%%%%%%%%%%%%%%XOOooXXXOOooXX%%%%%%%%%%%%%%%%%%%%%%%%%%%%%%%%%%%%%%%XOOooXX",
"XOOooXX%%%%%%%%%%%%%%%%%%%%%%%%%%%%%%%%%%%%%%%XOOooXXXOOooXX%%%%%%%%%%%%%%%%%%%%%%%%%%%%%%%%%%%%%%%XOOooXX",
"XOOooXX%%%%%%%%%%%%%%%%%%%%%%%%%%%%%%%%%%%%%%%XOOooXXXOOooXX%%%%%%%%%%%%%%%%%%%%%%%%%%%%%%%%%%%%%%%XOOooXX",
"XOOooXX%%%%%%%%%%%%%%%%%%%%%%%%%%%%%%%%%%%%%%%XOOooXXXOOooXX%%%%%%%%%%%%%%%%%%%%%%%%%%%%%%%%%%%%%%%XOOooXX",
"XOOooXX%%%%%%%%%%%%%%%%%%%%%%%%%%%%%%%%%%%%%%%XOOooXXXOOooXX%%%%%%%%%%%%%%%%%%%%%%%%%%%%%%%%%%%%%%%XOOooXX",
"XOOooXX%%%%%%%%%%%%%%%%%%%%%%%%%%%%%%%%%%%%%%%XOOooXXXOOooXX%%%%%%%%%%%%%%%%%%%%%%%%%%%%%%%%%%%%%%%XOOooXX",
"XOOooXX%%%%%%%%%%%%%%%%%%%%%%%%%%%%%%%%%%%%%%%XOOooXXXOOooXX%%%%%%%%%%%%%%%%%%%%%%%%%%%%%%%%%%%%%%%XOOooXX",
"XOOooXX%%%%%%%%%%%%%%%%%%%%%%%%%%%%%%%%%%%%%%%XOOooXXXOOooXX%%%%%%%%%%%%%%%%%%%%%%%%%%%%%%%%%%%%%%%XOOooXX",
"XOOooXX%%%%%%%%%%%%%%%%%%%%%%%%%%%%%%%%%%%%%%%XOOooXXXOOooXX%%%%%%%%%%%%%%%%%%%%%%%%%%%%%%%%%%%%%%%XOOooXX",
"XOOooXX%%%%%%%%%%%%%%%%%%%%%%%%%%%%%%%%%%%%%%%XOOooXXXOOooXX%%%%%%%%%%%%%%%%%%%%%%%%%%%%%%%%%%%%%%%XOOooXX",
"XOOooXXXXXXXXXXXXXXXXXXXXXXXXXXXXXXXXXXXXXXXXXXOOooXXXOOooXXXXXXXXXXXXXXXXXXXXXXXXXXXXXXXXXXXXXXXXXXOOooXX",
"XOOooXOOOOOOOOOOOOOOOOOXOOOOXOOOOOOOOOOOOOOOOOOOOooXXXOOooXOOOOOOOOOOOOOOOOOOOOOOOOOOOOOOOOOOOOOOOOOOOooXX",
"XOOooOOOOOOOOOOOOOOOOOXXOOOXXOOOOOOOOOOOOOOOOOOOOooXXXOOooOOOOOOOOOOOOOOOOOOOOOOOOOOOOOOOOOOOOOOOOOOOOooXX",
"XOOoooooooooooooooooooXXOOoXXOOooooooooooooooooooooXXXOOooooooooooooooooooooooooooooooooooooooooooooooooXX",
"XOOoooooooooooooooooooXXOOoXXOOooooooooooooooooooooXXXOOooooooooooooooooooooooooooooooooooooooooooooooooXX",
"XOXXXXXXXXXXXXXXXXXXXXXXOXXXXOXXXXXXXXXXXXXXXXXXXXXXXXOXXXXXXXXXXXXXXXXXXXXXXXXXXXXXXXXXXXXXXXXXXXXXXXXXXX",
"XXXXXXXXXXXXXXXXXXXXXXXXXXXXXXXXXXXXXXXXXXXXXXXXXXXXXXXXXXXXXXXXXXXXXXXXXXXXXXXXXXXXXXXXXXXXXXXXXXXXXXXXXX"
};
